<?xml version="1.0" encoding="UTF-8" standalone="no"?>
<!-- Created with Inkscape (http://www.inkscape.org/) -->

<svg
   width="128mm"
   height="128mm"
   viewBox="0 0 128 128"
   version="1.1"
   id="svg1"
   xml:space="preserve"
   inkscape:version="1.3.2 (091e20e, 2023-11-25, custom)"
   sodipodi:docname="dmz_logo.svg"
   xmlns:inkscape="http://www.inkscape.org/namespaces/inkscape"
   xmlns:sodipodi="http://sodipodi.sourceforge.net/DTD/sodipodi-0.dtd"
   xmlns="http://www.w3.org/2000/svg"
   xmlns:svg="http://www.w3.org/2000/svg"><sodipodi:namedview
     id="namedview1"
     pagecolor="#505050"
     bordercolor="#eeeeee"
     borderopacity="1"
     inkscape:showpageshadow="0"
     inkscape:pageopacity="0"
     inkscape:pagecheckerboard="0"
     inkscape:deskcolor="#505050"
     inkscape:document-units="mm"
     showguides="true"
     inkscape:zoom="1.4142136"
     inkscape:cx="246.07316"
     inkscape:cy="157.33126"
     inkscape:window-width="1920"
     inkscape:window-height="1057"
     inkscape:window-x="1352"
     inkscape:window-y="-8"
     inkscape:window-maximized="1"
     inkscape:current-layer="layer1" /><defs
     id="defs1" /><g
     inkscape:label="Capa 1"
     inkscape:groupmode="layer"
     id="layer1"><g
       id="g4"
       transform="matrix(1.30,0,0,1.30,0.61,0.93)"><path
         style="fill:#ea7b00;fill-opacity:1;stroke-width:1.16"
         d="m 30.69,61.94 c 0,0 -0.03,-15.72 4.89e-4,-23.56 h 6.16 l -0.02,2.30 c 6.31,-5.00 12.46,-0.75 13.78,0.57 5.82,-5.83 16.21,-2.26 18.05,2.57 1.04,2.75 0.82,12.04 0.77,18.16 -2.31,0 -3.55,-0.02 -6.33,-0.02 0,-4.38 -0.07,-10.93 -0.07,-14.27 -0.95,-6.26 -9.50,-4.54 -9.75,-0.13 0,0 -0.06,10.98 -0.06,14.41 l -6.43,-0.02 c 0,-3.11 -0.03,-13.10 -0.03,-14.44 0.66,-4.41 -9.25,-5.77 -9.76,0.33 0,4.38 -0.11,14.09 -0.11,14.09 -1.91,0 -6.17,-0.01 -6.17,-0.01 z"
         id="path3"
         sodipodi:nodetypes="cccccscccsccccccc" /><path
         style="fill:#ea7b00;fill-opacity:1;stroke-width:1.16"
         d="M 11.45,61.93 C 9.13,61.55 2.42,59.15 1.89,50.63 1.16,38.87 13.08,34.41 20.87,39.96 c 0,-3.84 0.13,-7.54 0.13,-11.15 1.09,0 5.65,-0.02 6.70,-0.02 0,0.73 -0.09,32.19 -0.09,32.88 -1.83,0 -3.96,-0.01 -6.13,-0.01 0,-0.93 0.02,-1.73 0.02,-2.57 -2.73,2.55 -6.39,3.32 -10.05,2.85 z m 9.47,-11.79 c 0.11,-2.25 -0.40,-3.72 -1.77,-5.10 -5.07,-5.07 -13.89,1.97 -8.95,8.98 2.31,3.29 10.38,3.28 10.73,-3.88 z"
         id="path3-8"
         sodipodi:nodetypes="ssccccccssssss" /><path
         style="fill:#ea7b00;fill-opacity:1;stroke-width:1.16"
         d="m 71.94,61.93 c 0,-1.52 0.00,-3.11 0.01,-4.59 4.28,-4.56 9.11,-8.95 13.26,-13.66 -1.84,0 -11.20,-0.12 -12.61,-0.12 v -5.01 h 21.91 c 0,0.89 0.00,3.43 0.00,4.30 -4.23,4.61 -8.76,9.14 -13.15,13.60 4.08,0 9.49,0.22 13.55,0.22 0,0.96 0.00,4.17 0.00,5.27 z"
         id="path3-7"
         sodipodi:nodetypes="ccccccccccc" /></g></g></svg>
